# xmcd CD database file
#
# Track frame offsets:
#	150
#	46907
#	98370
#
# Disc length: 1598 seconds
#
# Revision: 0
# Processed by: cddbd v1.5.1PL0 Copyright (c) Steve Scherf et al.
# Submitted via: CDex 1.51
#
DISCID=15063c03
DTITLE=Dirty Dozen Brass Band - We Got Robbed! -Live in New Orleans- Disc 2
DYEAR=2003
DGENRE=Jazz
TTITLE0=Blackbird Special
TTITLE1=Snowball
TTITLE2=Gemini Rising
EXTD=YEAR: 2003
EXTT0=
EXTT1=
EXTT2=
PLAYORDER=
